<svg xmlns="http://www.w3.org/2000/svg" xmlns:xlink="http://www.w3.org/1999/xlink" width="172" zoomAndPan="magnify" viewBox="0 0 129 37.5" height="50" preserveAspectRatio="xMidYMid meet" version="1.0"><defs><g/><clipPath id="712242cfb5"><path d="M 81 20 L 86 20 L 86 25 L 81 25 Z M 81 20 " clip-rule="nonzero"/></clipPath><clipPath id="2d544e44f6"><path d="M 81.648438 19.980469 L 86.035156 21.476562 L 84.71875 25.320312 L 80.335938 23.824219 Z M 81.648438 19.980469 " clip-rule="nonzero"/></clipPath><clipPath id="9433badaa6"><path d="M 81.609375 20.664062 C 81.054688 21.128906 81.109375 21.78125 81.320312 22.191406 L 82.558594 24.582031 L 84.957031 23.441406 C 85.359375 23.214844 85.589844 22.910156 85.65625 22.503906 C 85.753906 21.945312 85.457031 21.382812 84.9375 21.140625 C 84.617188 20.988281 84.265625 20.972656 83.941406 21.097656 C 83.855469 21.128906 83.777344 21.171875 83.699219 21.222656 C 83.664062 21.121094 83.617188 21.027344 83.554688 20.9375 C 83.339844 20.621094 83.003906 20.410156 82.632812 20.355469 C 82.277344 20.304688 81.902344 20.417969 81.609375 20.664062 Z M 81.609375 20.664062 " clip-rule="nonzero"/></clipPath><clipPath id="b05e4c9c13"><path d="M 0.847656 0 L 128.148438 0 L 128.148438 37.007812 L 0.847656 37.007812 Z M 0.847656 0 " clip-rule="nonzero"/></clipPath><clipPath id="fa0dc2bff0"><path d="M 25 25 L 29 25 L 29 29 L 25 29 Z M 25 25 " clip-rule="nonzero"/></clipPath><clipPath id="73cb21df00"><path d="M 24.734375 26.238281 L 28.421875 25.058594 L 29.453125 28.289062 L 25.769531 29.46875 Z M 24.734375 26.238281 " clip-rule="nonzero"/></clipPath><clipPath id="4fb754e865"><path d="M 25.050781 26.714844 C 24.910156 27.304688 25.273438 27.714844 25.617188 27.882812 L 27.636719 28.871094 L 28.675781 26.910156 C 28.832031 26.558594 28.835938 26.242188 28.679688 25.933594 C 28.464844 25.511719 27.984375 25.28125 27.515625 25.378906 C 27.226562 25.4375 26.984375 25.601562 26.828125 25.84375 C 26.789062 25.910156 26.753906 25.976562 26.726562 26.050781 C 26.65625 26 26.574219 25.960938 26.488281 25.929688 C 26.1875 25.824219 25.859375 25.851562 25.582031 26 C 25.316406 26.144531 25.125 26.40625 25.050781 26.714844 Z M 25.050781 26.714844 " clip-rule="nonzero"/></clipPath><clipPath id="f1a1f31600"><path d="M 59 4 L 64 4 L 64 9 L 59 9 Z M 59 4 " clip-rule="nonzero"/></clipPath><clipPath id="94070ed418"><path d="M 61.449219 4.144531 L 64.511719 7.621094 L 61.457031 10.304688 L 58.398438 6.828125 Z M 61.449219 4.144531 " clip-rule="nonzero"/></clipPath><clipPath id="faf80bff75"><path d="M 61.074219 4.71875 C 60.363281 4.84375 60.085938 5.441406 60.066406 5.902344 L 59.949219 8.589844 L 62.597656 8.789062 C 63.058594 8.796875 63.410156 8.644531 63.671875 8.328125 C 64.035156 7.886719 64.054688 7.253906 63.726562 6.785156 C 63.523438 6.496094 63.222656 6.308594 62.882812 6.253906 C 62.792969 6.238281 62.703125 6.234375 62.613281 6.242188 C 62.628906 6.136719 62.632812 6.03125 62.625 5.921875 C 62.597656 5.539062 62.414062 5.191406 62.113281 4.957031 C 61.832031 4.738281 61.453125 4.652344 61.074219 4.71875 Z M 61.074219 4.71875 " clip-rule="nonzero"/></clipPath><clipPath id="e6d4071065"><path d="M 51 5 L 56 5 L 56 9 L 51 9 Z M 51 5 " clip-rule="nonzero"/></clipPath><clipPath id="31a06c4ac4"><path d="M 51.480469 6.304688 L 54.90625 5.125 L 55.941406 8.128906 L 52.515625 9.308594 Z M 51.480469 6.304688 " clip-rule="nonzero"/></clipPath><clipPath id="cfa9f50752"><path d="M 51.785156 6.75 C 51.664062 7.300781 52.011719 7.679688 52.339844 7.828125 L 54.25 8.710938 L 55.183594 6.855469 C 55.324219 6.519531 55.320312 6.222656 55.167969 5.9375 C 54.957031 5.546875 54.503906 5.34375 54.066406 5.441406 C 53.796875 5.503906 53.570312 5.664062 53.433594 5.894531 C 53.394531 5.957031 53.363281 6.019531 53.34375 6.085938 C 53.273438 6.042969 53.195312 6.007812 53.113281 5.980469 C 52.832031 5.886719 52.523438 5.917969 52.265625 6.066406 C 52.023438 6.207031 51.847656 6.453125 51.785156 6.75 Z M 51.785156 6.75 " clip-rule="nonzero"/></clipPath></defs><g clip-path="url(#712242cfb5)"><g clip-path="url(#2d544e44f6)"><g clip-path="url(#9433badaa6)"><path fill="#d8798f" d="M 81.644531 19.992188 L 86.027344 21.492188 L 84.71875 25.320312 L 80.335938 23.824219 Z M 81.644531 19.992188 " fill-opacity="1" fill-rule="nonzero"/></g></g></g><g clip-path="url(#b05e4c9c13)"><path stroke-linecap="butt" transform="matrix(0.249464, 0, 0, 0.249464, 9.654111, 10.489554)" fill="none" stroke-linejoin="miter" d="M 17.154729 48.145059 C 24.858755 48.145059 31.278777 43.290896 35.45962 35.508577 C 35.851085 41.709379 39.593488 45.749295 45.794289 45.749295 C 57.741793 45.749295 68.139096 29.15119 68.139096 13.226405 C 68.139096 0.51163 61.703416 -10.621627 42.646912 -10.621627 C 25.532074 -10.621627 13.47496 0.229776 13.47496 13.007185 C 13.47496 18.675594 16.70063 23.921221 22.823138 23.921221 C 30.073065 23.921221 34.708008 14.494751 32.625415 14.181579 C 30.981263 14.181579 29.791211 12.537427 29.791211 10.3922 C 29.791211 2.688174 36.743624 -0.615788 43.774331 -0.615788 C 54.077683 -0.615788 57.005839 5.005645 57.005839 11.363033 C 57.005839 20.178818 52.292603 30.26295 45.794289 30.26295 C 43.241939 30.26295 42.192813 28.775384 42.192813 26.833719 C 42.192813 22.339704 47.720295 11.958059 48.769421 7.088238 C 49.301813 4.614181 48.628494 3.048322 45.481117 3.048322 C 43.241939 3.048322 41.597787 4.019154 40.626954 6.649797 C 39.34295 9.859808 37.918018 13.680504 36.665331 17.031442 C 33.142149 26.019472 27.238861 29.82451 22.603918 29.82451 C 18.485709 29.82451 15.275698 27.585331 15.275698 24.281369 C 15.275698 23.764635 14.758965 23.388829 14.163938 23.388829 C 8.166699 23.388829 4.205076 29.448703 4.205076 35.58687 C 4.205076 41.787672 7.947478 48.145059 17.154729 48.145059 Z M 99.315347 24.516248 C 97.812123 26.771085 96.387191 28.336944 94.163671 28.336944 C 90.781416 28.336944 89.528729 26.771085 89.528729 24.657175 C 89.528729 20.022233 92.73874 16.890515 92.73874 12.61572 C 92.73874 8.575804 85.551447 3.799934 78.520741 3.799934 C 74.480825 3.799934 71.881499 7.464044 71.881499 10.533127 C 71.881499 13.226405 72.852331 14.181579 74.339897 14.713971 C 73.071552 18.15886 71.208179 22.49629 69.783248 24.516248 C 68.812415 25.941179 72.163353 28.336944 73.149844 26.37962 C 74.339897 23.921221 76.813954 18.816521 78.160593 15.841389 C 81.151384 16.968808 82.122216 18.816521 82.122216 19.568133 C 82.122216 23.169609 76.876589 30.200316 76.876589 37.152729 C 76.876589 40.973425 78.97484 44.997683 85.113007 44.997683 C 95.212797 44.997683 100.28618 30.48217 102.666285 26.37962 C 103.511849 24.954688 100.521059 22.71551 99.315347 24.516248 Z M 111.654316 44.997683 C 120.329174 44.997683 128.236762 38.577661 134.829028 26.37962 C 135.658933 24.954688 132.668143 22.71551 131.462431 24.516248 C 128.095835 29.667924 122.03596 32.298567 116.962577 32.298567 C 112.687783 32.298567 109.180259 30.951928 109.180259 28.336944 C 109.180259 27.350452 109.931871 27.131232 110.464263 27.428745 C 112.186708 28.399578 114.191007 28.618798 116.289258 28.618798 C 123.601819 28.618798 128.315055 22.49629 128.315055 17.031442 C 128.315055 12.098986 125.26163 7.62063 118.309216 7.62063 C 96.84129 7.62063 90.640489 44.997683 111.654316 44.997683 Z M 114.347593 23.028682 C 111.93617 23.028682 110.82441 21.60375 110.82441 19.959598 C 110.82441 17.923982 112.625148 15.763096 115.537646 15.763096 C 117.855117 15.763096 118.966877 17.188028 118.966877 18.816521 C 118.966877 20.711211 117.260091 23.028682 114.347593 23.028682 Z M 160.462139 24.516248 C 158.990231 26.771085 157.424372 28.399578 155.169535 28.477871 C 154.183044 23.842928 150.221421 17.861347 150.221421 16.436416 C 150.221421 13.445625 155.686269 13.226405 155.607976 10.830641 C 155.686269 8.434876 153.431432 5.757258 148.79649 5.757258 C 142.376468 5.757258 137.068206 16.890515 131.775603 24.062149 L 131.462431 24.516248 C 126.968416 31.985395 128.534275 44.91939 141.703149 44.91939 C 155.607976 44.91939 161.746143 30.732708 163.844394 26.37962 C 164.517713 24.954688 161.66785 22.71551 160.462139 24.516248 Z M 139.009871 29.526996 C 136.551473 29.526996 134.844687 28.164699 134.844687 26.37962 C 136.551473 24.203076 138.868944 21.133992 140.732316 18.378081 C 141.405635 17.422907 142.01632 17.422907 142.517395 18.378081 C 143.582179 20.398039 144.177206 22.277069 144.177206 24.062149 C 144.177206 27.131232 142.298175 29.526996 139.009871 29.526996 Z M 189.399212 24.516248 C 187.927304 26.771085 186.345787 28.399578 184.106609 28.477871 C 183.120117 23.842928 179.158494 17.861347 179.158494 16.436416 C 179.158494 13.445625 184.623342 13.226405 184.545049 10.830641 C 184.623342 8.434876 182.368505 5.757258 177.733563 5.757258 C 171.313541 5.757258 166.005279 16.890515 160.697018 24.062149 L 160.399504 24.516248 C 155.905489 31.985395 157.471348 44.91939 170.640222 44.91939 C 184.545049 44.91939 190.683216 30.732708 192.781467 26.37962 C 193.454786 24.954688 190.604923 22.71551 189.399212 24.516248 Z M 167.946944 29.526996 C 165.488546 29.526996 163.766101 28.164699 163.766101 26.37962 C 165.488546 24.203076 167.806017 21.133992 169.669389 18.378081 C 170.342709 17.422907 170.937735 17.422907 171.454468 18.378081 C 172.519252 20.398039 173.114279 22.277069 173.114279 24.062149 C 173.114279 27.131232 171.235248 29.526996 167.946944 29.526996 Z M 224.474452 48.145059 C 232.178478 48.145059 238.5985 43.290896 242.779343 35.508577 C 243.170808 41.709379 246.91321 45.749295 253.114012 45.749295 C 265.077174 45.749295 275.458819 29.15119 275.458819 13.226405 C 275.458819 0.51163 269.038797 -10.621627 249.982294 -10.621627 C 232.851797 -10.621627 220.810342 0.229776 220.810342 13.007185 C 220.810342 18.675594 224.020353 23.921221 230.15852 23.921221 C 237.408447 23.921221 242.043389 14.494751 239.960797 14.181579 C 238.316645 14.181579 237.110934 12.537427 237.110934 10.3922 C 237.110934 2.688174 244.063347 -0.615788 251.094054 -0.615788 C 261.413064 -0.615788 264.325562 5.005645 264.325562 11.363033 C 264.325562 20.178818 259.612326 30.26295 253.114012 30.26295 C 250.561662 30.26295 249.528195 28.775384 249.528195 26.833719 C 249.528195 22.339704 255.055677 11.958059 256.089144 7.088238 C 256.621536 4.614181 255.948217 3.048322 252.80084 3.048322 C 250.561662 3.048322 248.91751 4.019154 247.946677 6.649797 C 246.678332 9.859808 245.2534 13.680504 243.985054 17.031442 C 240.461872 26.019472 234.574242 29.82451 229.9393 29.82451 C 225.805432 29.82451 222.595421 27.585331 222.595421 24.281369 C 222.595421 23.764635 222.078688 23.388829 221.483661 23.388829 C 215.50208 23.388829 211.540457 29.448703 211.540457 35.58687 C 211.540457 41.787672 215.28286 48.145059 224.474452 48.145059 Z M 306.63507 24.516248 C 305.147504 26.771085 303.722573 28.336944 301.499053 28.336944 C 298.116798 28.336944 296.848452 26.771085 296.848452 24.657175 C 296.848452 20.022233 300.074121 16.890515 300.074121 12.61572 C 300.074121 8.575804 292.87117 3.799934 285.840464 3.799934 C 281.816206 3.799934 279.201222 7.464044 279.201222 10.533127 C 279.201222 13.226405 280.172054 14.181579 281.65962 14.713971 C 280.391274 18.15886 278.527902 22.49629 277.102971 24.516248 C 276.132138 25.941179 279.498735 28.336944 280.485226 26.37962 C 281.65962 23.921221 284.133677 18.816521 285.480316 15.841389 C 288.471107 16.968808 289.441939 18.816521 289.441939 19.568133 C 289.441939 23.169609 284.21197 30.200316 284.21197 37.152729 C 284.21197 40.973425 286.310221 44.997683 292.43273 44.997683 C 302.53252 44.997683 307.605903 30.48217 310.001667 26.37962 C 310.831572 24.954688 307.840782 22.71551 306.63507 24.516248 Z M 318.974039 44.997683 C 327.648897 44.997683 335.572143 38.577661 342.164409 26.37962 C 342.978656 24.954688 339.987866 22.71551 338.782154 24.516248 C 335.415557 29.667924 329.355683 32.298567 324.2823 32.298567 C 320.023164 32.298567 316.51564 30.951928 316.51564 28.336944 C 316.51564 27.350452 317.267252 27.131232 317.783986 27.428745 C 319.506431 28.399578 321.51073 28.618798 323.608981 28.618798 C 330.937201 28.618798 335.634778 22.49629 335.634778 17.031442 C 335.634778 12.098986 332.597011 7.62063 325.644598 7.62063 C 304.176672 7.62063 297.960212 44.997683 318.974039 44.997683 Z M 321.682975 23.028682 C 319.271552 23.028682 318.159792 21.60375 318.159792 19.959598 C 318.159792 17.923982 319.944871 15.763096 322.857369 15.763096 C 325.17484 15.763096 326.302258 17.188028 326.302258 18.816521 C 326.302258 20.711211 324.579814 23.028682 321.682975 23.028682 Z M 344.998614 44.997683 C 350.306876 44.997683 354.800891 40.14352 357.791682 34.083646 L 358.073536 34.083646 C 357.180997 40.284447 359.357541 44.997683 364.509216 44.997683 C 372.808269 44.997683 376.926478 33.332034 380.590588 26.37962 C 381.3422 24.954688 378.335751 22.71551 377.223991 24.516248 C 375.736425 26.912012 373.857394 28.336944 371.320703 28.336944 C 368.032399 28.336944 367.202494 25.346153 369.739185 19.881305 C 371.383337 15.543876 373.340661 13.226405 373.340661 10.3922 C 373.340661 8.73239 372.667342 7.62063 370.710018 7.62063 C 367.202494 7.62063 366.68576 10.470493 364.211703 10.470493 C 362.25438 10.470493 362.567551 7.62063 356.58597 7.62063 C 343.730268 7.62063 337.294588 23.310536 337.294588 33.723498 C 337.294588 40.36274 339.909573 44.997683 344.998614 44.997683 Z M 352.48342 29.526996 C 350.15029 29.526996 348.741017 28.023772 348.741017 25.48708 C 348.741017 22.198776 351.199416 18.534667 355.082746 18.534667 C 357.47851 18.534667 358.981734 20.022233 358.981734 22.49629 C 358.981734 25.628008 356.36675 29.526996 352.48342 29.526996 Z M 380.214782 44.997683 C 385.523043 44.997683 386.493876 40.895132 386.493876 37.074436 L 386.493876 33.723498 C 386.493876 27.052939 390.236279 20.852138 394.558049 20.852138 C 396.296153 20.852138 397.407913 21.744677 397.407913 23.764635 C 397.407913 27.585331 393.66551 32.658714 393.66551 38.342782 C 393.66551 43.290896 396.21786 44.856755 399.647091 44.856755 C 405.252866 44.856755 406.31765 40.754205 406.31765 37.59117 C 406.31765 35.430284 405.785258 34.678672 405.785258 32.517787 C 405.785258 26.912012 409.527661 20.711211 413.849432 20.711211 C 415.571876 20.711211 416.699295 21.60375 416.699295 23.310536 C 416.699295 26.37962 413.551918 31.406027 413.551918 37.074436 C 413.551918 41.333573 415.19607 44.997683 419.987599 44.997683 C 430.07173 44.997683 435.17643 30.48217 437.556536 26.37962 C 438.386441 24.954688 435.39565 22.71551 434.189939 24.516248 C 432.686714 26.771085 431.277441 28.336944 429.038263 28.336944 C 426.485913 28.336944 425.374153 27.052939 425.374153 24.437955 C 425.374153 20.711211 427.754259 18.315446 427.754259 14.353823 C 427.754259 10.61142 425.593374 7.464044 419.768378 7.464044 C 416.166903 7.464044 412.956892 9.186489 410.107029 12.318207 C 408.995269 13.602211 408.462877 13.289039 408.243657 12.318207 C 407.492044 9.640588 405.393793 7.62063 401.745342 7.62063 C 398.44138 7.62063 395.466248 9.186489 392.694677 11.864108 C 390.298913 14.27553 388.654761 13.007185 388.654761 10.470493 C 388.654761 8.967268 388.059735 7.62063 386.33729 7.62063 C 383.346499 7.62063 380.277416 15.324656 377.208332 24.516248 C 375.141399 30.654415 374.749934 36.025311 374.749934 39.548493 C 374.749934 42.680211 376.707258 44.997683 380.214782 44.997683 Z M 380.214782 44.997683 " stroke="#c15b75" stroke-width="12.057034" stroke-opacity="1" stroke-miterlimit="4"/></g><g fill="#e19fae" fill-opacity="1"><g transform="translate(11.45103, 21.715422)"><g><path d="M 2.480469 0.785156 C 4.402344 0.785156 6.007812 -0.429688 7.050781 -2.367188 C 7.144531 -0.820312 8.078125 0.1875 9.625 0.1875 C 12.609375 0.1875 15.203125 -3.953125 15.203125 -7.925781 C 15.203125 -11.097656 13.597656 -13.878906 8.839844 -13.878906 C 4.570312 -13.878906 1.566406 -11.171875 1.566406 -7.984375 C 1.566406 -6.566406 2.367188 -5.261719 3.898438 -5.261719 C 5.707031 -5.261719 6.863281 -7.609375 6.34375 -7.683594 C 5.929688 -7.683594 5.632812 -8.09375 5.632812 -8.636719 C 5.632812 -10.558594 7.367188 -11.378906 9.121094 -11.378906 C 11.695312 -11.378906 12.421875 -9.980469 12.421875 -8.394531 C 12.421875 -6.191406 11.246094 -3.675781 9.625 -3.675781 C 8.992188 -3.675781 8.730469 -4.046875 8.730469 -4.53125 C 8.730469 -5.652344 10.109375 -8.246094 10.371094 -9.457031 C 10.5 -10.074219 10.332031 -10.464844 9.550781 -10.464844 C 8.992188 -10.464844 8.582031 -10.222656 8.335938 -9.570312 C 8.019531 -8.765625 7.667969 -7.816406 7.347656 -6.976562 C 6.472656 -4.738281 5 -3.785156 3.84375 -3.785156 C 2.816406 -3.785156 2.015625 -4.347656 2.015625 -5.167969 C 2.015625 -5.296875 1.882812 -5.390625 1.734375 -5.390625 C 0.242188 -5.390625 -0.746094 -3.878906 -0.746094 -2.351562 C -0.746094 -0.800781 0.1875 0.785156 2.480469 0.785156 Z M 2.480469 0.785156 "/></g></g></g><g fill="#e19fae" fill-opacity="1"><g transform="translate(26.633209, 21.715422)"><g><path d="M 7.796875 -5.109375 C 7.421875 -4.550781 7.070312 -4.160156 6.507812 -4.160156 C 5.671875 -4.160156 5.351562 -4.550781 5.351562 -5.074219 C 5.351562 -6.230469 6.15625 -7.011719 6.15625 -8.078125 C 6.15625 -9.082031 4.363281 -10.277344 2.613281 -10.277344 C 1.605469 -10.277344 0.953125 -9.363281 0.953125 -8.597656 C 0.953125 -7.925781 1.195312 -7.683594 1.566406 -7.554688 C 1.25 -6.695312 0.785156 -5.613281 0.429688 -5.109375 C 0.1875 -4.757812 1.027344 -4.160156 1.269531 -4.644531 C 1.566406 -5.261719 2.183594 -6.527344 2.519531 -7.273438 C 3.265625 -6.996094 3.507812 -6.527344 3.507812 -6.34375 C 3.507812 -5.445312 2.199219 -3.691406 2.199219 -1.957031 C 2.199219 -1.007812 2.722656 0 4.253906 0 C 6.769531 0 8.039062 -3.617188 8.636719 -4.644531 C 8.839844 -5 8.09375 -5.558594 7.796875 -5.109375 Z M 7.796875 -5.109375 "/></g></g></g><g fill="#e19fae" fill-opacity="1"><g transform="translate(34.000482, 21.715422)"><g><path d="M 3.507812 0 C 5.671875 0 7.648438 -1.605469 9.289062 -4.644531 C 9.492188 -5 8.746094 -5.558594 8.449219 -5.109375 C 7.609375 -3.824219 6.097656 -3.171875 4.832031 -3.171875 C 3.769531 -3.171875 2.890625 -3.507812 2.890625 -4.160156 C 2.890625 -4.402344 3.078125 -4.457031 3.207031 -4.382812 C 3.636719 -4.140625 4.140625 -4.085938 4.664062 -4.085938 C 6.492188 -4.085938 7.667969 -5.613281 7.667969 -6.976562 C 7.667969 -8.207031 6.902344 -9.328125 5.167969 -9.328125 C -0.1875 -9.328125 -1.734375 0 3.507812 0 Z M 4.179688 -5.484375 C 3.582031 -5.484375 3.300781 -5.839844 3.300781 -6.25 C 3.300781 -6.753906 3.75 -7.292969 4.476562 -7.292969 C 5.054688 -7.292969 5.335938 -6.9375 5.335938 -6.527344 C 5.335938 -6.0625 4.90625 -5.484375 4.179688 -5.484375 Z M 4.179688 -5.484375 "/></g></g></g><g fill="#e19fae" fill-opacity="1"><g transform="translate(42.020552, 21.715422)"><g><path d="M 7.667969 -5.109375 C 7.292969 -4.550781 6.902344 -4.140625 6.34375 -4.121094 C 6.097656 -5.277344 5.109375 -6.769531 5.109375 -7.125 C 5.109375 -7.871094 6.472656 -7.925781 6.453125 -8.523438 C 6.472656 -9.121094 5.914062 -9.792969 4.757812 -9.792969 C 3.152344 -9.792969 1.828125 -7.011719 0.503906 -5.222656 L 0.429688 -5.109375 C -0.691406 -3.246094 -0.296875 -0.0195312 2.984375 -0.0195312 C 6.453125 -0.0195312 7.984375 -3.5625 8.503906 -4.644531 C 8.671875 -5 7.964844 -5.558594 7.667969 -5.109375 Z M 2.3125 -3.859375 C 1.699219 -3.859375 1.269531 -4.195312 1.269531 -4.644531 C 1.699219 -5.183594 2.277344 -5.949219 2.742188 -6.640625 C 2.910156 -6.882812 3.058594 -6.882812 3.191406 -6.640625 C 3.449219 -6.136719 3.601562 -5.671875 3.601562 -5.222656 C 3.601562 -4.457031 3.132812 -3.859375 2.3125 -3.859375 Z M 2.3125 -3.859375 "/></g></g></g><g fill="#e19fae" fill-opacity="1"><g transform="translate(49.238617, 21.715422)"><g><path d="M 7.667969 -5.109375 C 7.292969 -4.550781 6.902344 -4.140625 6.34375 -4.121094 C 6.097656 -5.277344 5.109375 -6.769531 5.109375 -7.125 C 5.109375 -7.871094 6.472656 -7.925781 6.453125 -8.523438 C 6.472656 -9.121094 5.914062 -9.792969 4.757812 -9.792969 C 3.152344 -9.792969 1.828125 -7.011719 0.503906 -5.222656 L 0.429688 -5.109375 C -0.691406 -3.246094 -0.296875 -0.0195312 2.984375 -0.0195312 C 6.453125 -0.0195312 7.984375 -3.5625 8.503906 -4.644531 C 8.671875 -5 7.964844 -5.558594 7.667969 -5.109375 Z M 2.3125 -3.859375 C 1.699219 -3.859375 1.269531 -4.195312 1.269531 -4.644531 C 1.699219 -5.183594 2.277344 -5.949219 2.742188 -6.640625 C 2.910156 -6.882812 3.058594 -6.882812 3.191406 -6.640625 C 3.449219 -6.136719 3.601562 -5.671875 3.601562 -5.222656 C 3.601562 -4.457031 3.132812 -3.859375 2.3125 -3.859375 Z M 2.3125 -3.859375 "/></g></g></g><g fill="#e19fae" fill-opacity="1"><g transform="translate(56.456682, 21.715422)"><g/></g></g><g fill="#e19fae" fill-opacity="1"><g transform="translate(63.17116, 21.715422)"><g><path d="M 2.480469 0.785156 C 4.402344 0.785156 6.007812 -0.429688 7.050781 -2.367188 C 7.144531 -0.820312 8.078125 0.1875 9.625 0.1875 C 12.609375 0.1875 15.203125 -3.953125 15.203125 -7.925781 C 15.203125 -11.097656 13.597656 -13.878906 8.839844 -13.878906 C 4.570312 -13.878906 1.566406 -11.171875 1.566406 -7.984375 C 1.566406 -6.566406 2.367188 -5.261719 3.898438 -5.261719 C 5.707031 -5.261719 6.863281 -7.609375 6.34375 -7.683594 C 5.929688 -7.683594 5.632812 -8.09375 5.632812 -8.636719 C 5.632812 -10.558594 7.367188 -11.378906 9.121094 -11.378906 C 11.695312 -11.378906 12.421875 -9.980469 12.421875 -8.394531 C 12.421875 -6.191406 11.246094 -3.675781 9.625 -3.675781 C 8.992188 -3.675781 8.730469 -4.046875 8.730469 -4.53125 C 8.730469 -5.652344 10.109375 -8.246094 10.371094 -9.457031 C 10.5 -10.074219 10.332031 -10.464844 9.550781 -10.464844 C 8.992188 -10.464844 8.582031 -10.222656 8.335938 -9.570312 C 8.019531 -8.765625 7.667969 -7.816406 7.347656 -6.976562 C 6.472656 -4.738281 5 -3.785156 3.84375 -3.785156 C 2.816406 -3.785156 2.015625 -4.347656 2.015625 -5.167969 C 2.015625 -5.296875 1.882812 -5.390625 1.734375 -5.390625 C 0.242188 -5.390625 -0.746094 -3.878906 -0.746094 -2.351562 C -0.746094 -0.800781 0.1875 0.785156 2.480469 0.785156 Z M 2.480469 0.785156 "/></g></g></g><g fill="#e19fae" fill-opacity="1"><g transform="translate(78.353335, 21.715422)"><g><path d="M 7.796875 -5.109375 C 7.421875 -4.550781 7.070312 -4.160156 6.507812 -4.160156 C 5.671875 -4.160156 5.351562 -4.550781 5.351562 -5.074219 C 5.351562 -6.230469 6.15625 -7.011719 6.15625 -8.078125 C 6.15625 -9.082031 4.363281 -10.277344 2.613281 -10.277344 C 1.605469 -10.277344 0.953125 -9.363281 0.953125 -8.597656 C 0.953125 -7.925781 1.195312 -7.683594 1.566406 -7.554688 C 1.25 -6.695312 0.785156 -5.613281 0.429688 -5.109375 C 0.1875 -4.757812 1.027344 -4.160156 1.269531 -4.644531 C 1.566406 -5.261719 2.183594 -6.527344 2.519531 -7.273438 C 3.265625 -6.996094 3.507812 -6.527344 3.507812 -6.34375 C 3.507812 -5.445312 2.199219 -3.691406 2.199219 -1.957031 C 2.199219 -1.007812 2.722656 0 4.253906 0 C 6.769531 0 8.039062 -3.617188 8.636719 -4.644531 C 8.839844 -5 8.09375 -5.558594 7.796875 -5.109375 Z M 7.796875 -5.109375 "/></g></g></g><g fill="#e19fae" fill-opacity="1"><g transform="translate(85.720608, 21.715422)"><g><path d="M 3.507812 0 C 5.671875 0 7.648438 -1.605469 9.289062 -4.644531 C 9.492188 -5 8.746094 -5.558594 8.449219 -5.109375 C 7.609375 -3.824219 6.097656 -3.171875 4.832031 -3.171875 C 3.769531 -3.171875 2.890625 -3.507812 2.890625 -4.160156 C 2.890625 -4.402344 3.078125 -4.457031 3.207031 -4.382812 C 3.636719 -4.140625 4.140625 -4.085938 4.664062 -4.085938 C 6.492188 -4.085938 7.667969 -5.613281 7.667969 -6.976562 C 7.667969 -8.207031 6.902344 -9.328125 5.167969 -9.328125 C -0.1875 -9.328125 -1.734375 0 3.507812 0 Z M 4.179688 -5.484375 C 3.582031 -5.484375 3.300781 -5.839844 3.300781 -6.25 C 3.300781 -6.753906 3.75 -7.292969 4.476562 -7.292969 C 5.054688 -7.292969 5.335938 -6.9375 5.335938 -6.527344 C 5.335938 -6.0625 4.90625 -5.484375 4.179688 -5.484375 Z M 4.179688 -5.484375 "/></g></g></g><g fill="#e19fae" fill-opacity="1"><g transform="translate(93.740682, 21.715422)"><g><path d="M 1.976562 0 C 3.300781 0 4.421875 -1.210938 5.167969 -2.722656 L 5.242188 -2.722656 C 5.015625 -1.175781 5.558594 0 6.84375 0 C 8.914062 0 9.941406 -2.910156 10.855469 -4.644531 C 11.042969 -5 10.296875 -5.558594 10.015625 -5.109375 C 9.644531 -4.515625 9.175781 -4.160156 8.542969 -4.160156 C 7.722656 -4.160156 7.515625 -4.90625 8.152344 -6.265625 C 8.5625 -7.347656 9.046875 -7.925781 9.046875 -8.636719 C 9.046875 -9.046875 8.878906 -9.328125 8.394531 -9.328125 C 7.515625 -9.328125 7.386719 -8.617188 6.769531 -8.617188 C 6.285156 -8.617188 6.359375 -9.328125 4.867188 -9.328125 C 1.660156 -9.328125 0.0546875 -5.410156 0.0546875 -2.816406 C 0.0546875 -1.15625 0.707031 0 1.976562 0 Z M 3.84375 -3.859375 C 3.265625 -3.859375 2.910156 -4.234375 2.910156 -4.867188 C 2.910156 -5.6875 3.523438 -6.601562 4.496094 -6.601562 C 5.09375 -6.601562 5.464844 -6.230469 5.464844 -5.613281 C 5.464844 -4.832031 4.8125 -3.859375 3.84375 -3.859375 Z M 3.84375 -3.859375 "/></g></g></g><g fill="#e19fae" fill-opacity="1"><g transform="translate(103.327465, 21.715422)"><g><path d="M 1.175781 0 C 2.5 0 2.742188 -1.027344 2.742188 -1.976562 L 2.742188 -2.816406 C 2.742188 -4.476562 3.675781 -6.023438 4.757812 -6.023438 C 5.183594 -6.023438 5.464844 -5.800781 5.464844 -5.296875 C 5.464844 -4.347656 4.53125 -3.078125 4.53125 -1.660156 C 4.53125 -0.429688 5.167969 -0.0390625 6.023438 -0.0390625 C 7.421875 -0.0390625 7.683594 -1.0625 7.683594 -1.847656 C 7.683594 -2.386719 7.554688 -2.574219 7.554688 -3.113281 C 7.554688 -4.515625 8.488281 -6.0625 9.570312 -6.0625 C 9.996094 -6.0625 10.277344 -5.839844 10.277344 -5.410156 C 10.277344 -4.644531 9.492188 -3.394531 9.492188 -1.976562 C 9.492188 -0.914062 9.90625 0 11.097656 0 C 13.617188 0 14.882812 -3.617188 15.480469 -4.644531 C 15.6875 -5 14.941406 -5.558594 14.640625 -5.109375 C 14.269531 -4.550781 13.914062 -4.160156 13.355469 -4.160156 C 12.722656 -4.160156 12.441406 -4.476562 12.441406 -5.128906 C 12.441406 -6.0625 13.039062 -6.660156 13.039062 -7.648438 C 13.039062 -8.582031 12.496094 -9.363281 11.042969 -9.363281 C 10.148438 -9.363281 9.34375 -8.933594 8.636719 -8.152344 C 8.355469 -7.835938 8.226562 -7.910156 8.167969 -8.152344 C 7.984375 -8.824219 7.460938 -9.328125 6.546875 -9.328125 C 5.726562 -9.328125 4.980469 -8.933594 4.289062 -8.261719 C 3.691406 -7.667969 3.28125 -7.984375 3.28125 -8.617188 C 3.28125 -8.992188 3.132812 -9.328125 2.703125 -9.328125 C 1.957031 -9.328125 1.195312 -7.40625 0.429688 -5.109375 C -0.09375 -3.582031 -0.1875 -2.238281 -0.1875 -1.363281 C -0.1875 -0.578125 0.296875 0 1.175781 0 Z M 1.175781 0 "/></g></g></g><g clip-path="url(#fa0dc2bff0)"><g clip-path="url(#73cb21df00)"><g clip-path="url(#4fb754e865)"><path fill="#e19fae" d="M 24.738281 26.25 L 28.425781 25.070312 L 29.453125 28.289062 L 25.769531 29.46875 Z M 24.738281 26.25 " fill-opacity="1" fill-rule="nonzero"/></g></g></g><g clip-path="url(#f1a1f31600)"><g clip-path="url(#94070ed418)"><g clip-path="url(#faf80bff75)"><path fill="#e19fae" d="M 61.4375 4.15625 L 64.5 7.632812 L 61.457031 10.304688 L 58.398438 6.828125 Z M 61.4375 4.15625 " fill-opacity="1" fill-rule="nonzero"/></g></g></g><g clip-path="url(#e6d4071065)"><g clip-path="url(#31a06c4ac4)"><g clip-path="url(#cfa9f50752)"><path fill="#d8798f" d="M 51.484375 6.316406 L 54.910156 5.136719 L 55.941406 8.128906 L 52.515625 9.308594 Z M 51.484375 6.316406 " fill-opacity="1" fill-rule="nonzero"/></g></g></g><g fill="#c15b75" fill-opacity="1"><g transform="translate(42.582904, 31.710932)"><g><path d="M 3.15625 -1.921875 C 3.375 -1.859375 3.539062 -1.75 3.65625 -1.59375 C 3.78125 -1.4375 3.84375 -1.242188 3.84375 -1.015625 C 3.84375 -0.691406 3.710938 -0.441406 3.453125 -0.265625 C 3.203125 -0.0859375 2.835938 0 2.359375 0 L 0.4375 0 L 0.4375 -3.703125 L 2.25 -3.703125 C 2.695312 -3.703125 3.039062 -3.613281 3.28125 -3.4375 C 3.53125 -3.269531 3.65625 -3.039062 3.65625 -2.75 C 3.65625 -2.5625 3.609375 -2.394531 3.515625 -2.25 C 3.429688 -2.113281 3.3125 -2.003906 3.15625 -1.921875 Z M 1.296875 -3.0625 L 1.296875 -2.1875 L 2.140625 -2.1875 C 2.359375 -2.1875 2.519531 -2.222656 2.625 -2.296875 C 2.738281 -2.367188 2.796875 -2.476562 2.796875 -2.625 C 2.796875 -2.769531 2.738281 -2.878906 2.625 -2.953125 C 2.519531 -3.023438 2.359375 -3.0625 2.140625 -3.0625 Z M 2.296875 -0.640625 C 2.515625 -0.640625 2.679688 -0.675781 2.796875 -0.75 C 2.921875 -0.832031 2.984375 -0.953125 2.984375 -1.109375 C 2.984375 -1.410156 2.753906 -1.5625 2.296875 -1.5625 L 1.296875 -1.5625 L 1.296875 -0.640625 Z M 2.296875 -0.640625 "/></g></g></g><g fill="#c15b75" fill-opacity="1"><g transform="translate(47.272272, 31.710932)"><g><path d="M 2.21875 -1.3125 L 2.21875 0 L 1.359375 0 L 1.359375 -1.328125 L -0.078125 -3.703125 L 0.84375 -3.703125 L 1.828125 -2.0625 L 2.8125 -3.703125 L 3.65625 -3.703125 Z M 2.21875 -1.3125 "/></g></g></g><g fill="#c15b75" fill-opacity="1"><g transform="translate(51.490091, 31.710932)"><g/></g></g><g fill="#c15b75" fill-opacity="1"><g transform="translate(53.625671, 31.710932)"><g><path d="M 2.875 -0.796875 L 1.15625 -0.796875 L 0.828125 0 L -0.046875 0 L 1.609375 -3.703125 L 2.453125 -3.703125 L 4.109375 0 L 3.203125 0 Z M 2.609375 -1.453125 L 2.015625 -2.859375 L 1.4375 -1.453125 Z M 2.609375 -1.453125 "/></g></g></g><g fill="#c15b75" fill-opacity="1"><g transform="translate(58.320338, 31.710932)"><g><path d="M 2.875 -0.796875 L 1.15625 -0.796875 L 0.828125 0 L -0.046875 0 L 1.609375 -3.703125 L 2.453125 -3.703125 L 4.109375 0 L 3.203125 0 Z M 2.609375 -1.453125 L 2.015625 -2.859375 L 1.4375 -1.453125 Z M 2.609375 -1.453125 "/></g></g></g><g fill="#c15b75" fill-opacity="1"><g transform="translate(63.015006, 31.710932)"><g><path d="M 3.8125 0 L 3.8125 -2.21875 L 2.71875 -0.390625 L 2.328125 -0.390625 L 1.25 -2.171875 L 1.25 0 L 0.4375 0 L 0.4375 -3.703125 L 1.15625 -3.703125 L 2.53125 -1.40625 L 3.90625 -3.703125 L 4.609375 -3.703125 L 4.625 0 Z M 3.8125 0 "/></g></g></g><g fill="#c15b75" fill-opacity="1"><g transform="translate(68.711056, 31.710932)"><g><path d="M 3.84375 -3.703125 L 3.84375 0 L 3.140625 0 L 1.28125 -2.25 L 1.28125 0 L 0.4375 0 L 0.4375 -3.703125 L 1.15625 -3.703125 L 3 -1.453125 L 3 -3.703125 Z M 3.84375 -3.703125 "/></g></g></g><g fill="#c15b75" fill-opacity="1"><g transform="translate(73.62825, 31.710932)"><g><path d="M 2.875 -0.796875 L 1.15625 -0.796875 L 0.828125 0 L -0.046875 0 L 1.609375 -3.703125 L 2.453125 -3.703125 L 4.109375 0 L 3.203125 0 Z M 2.609375 -1.453125 L 2.015625 -2.859375 L 1.4375 -1.453125 Z M 2.609375 -1.453125 "/></g></g></g></svg>